<svg xmlns="http://www.w3.org/2000/svg" xmlns:xlink="http://www.w3.org/1999/xlink" width="50" height="31" viewBox="0 0 50 31">
    <defs>
        <path id="a" d="M.036.11h10.912v12.253H.036z"/>
        <path id="c" d="M5.082.08L.327 2.814a.571.571 0 0 0-.287.496v5.472c0 .205.11.393.287.495l4.755 2.737a.575.575 0 0 0 .575 0l4.754-2.737a.572.572 0 0 0 .287-.495V3.309a.572.572 0 0 0-.287-.495L5.657.08a.576.576 0 0 0-.575 0"/>
        <path id="e" d="M.045 9.13a.57.57 0 0 0 .17.147l4.101 2.361.656.376a.58.58 0 0 0 .445.054l5.014-9.149a.573.573 0 0 0-.133-.105L7.184 1.023 5.539.08a.567.567 0 0 0-.15-.06L.046 9.13z"/>
        <path id="g" d="M4.971.006a.575.575 0 0 0-.227.074L.002 2.806l5.112 9.279a.573.573 0 0 0 .205-.071l4.754-2.737a.573.573 0 0 0 .277-.39L5.138.015a.598.598 0 0 0-.167-.009"/>
    </defs>
    <g fill="none" fill-rule="evenodd">
        <g transform="translate(19.187 18.105)">
            <mask id="b" fill="#fff">
                <use xlink:href="#a"/>
            </mask>
            <path fill="#7B8590" fill-rule="nonzero" d="M5.49 12.37a.94.94 0 0 1-.472-.127l-1.505-.886c-.225-.126-.116-.17-.042-.196.3-.104.36-.128.681-.309.034-.018.078-.011.112.009l1.157.684a.149.149 0 0 0 .14 0l4.508-2.593a.142.142 0 0 0 .07-.121V3.646a.145.145 0 0 0-.07-.124L5.56.932a.141.141 0 0 0-.139 0L.916 3.523a.144.144 0 0 0-.071.123V8.83c0 .05.027.096.071.12l1.235.71c.67.335 1.08-.059 1.08-.454V4.088a.13.13 0 0 1 .132-.129h.572a.13.13 0 0 1 .13.13v5.118c0 .891-.487 1.403-1.335 1.403-.26 0-.466 0-1.039-.282L.509 9.65a.949.949 0 0 1-.473-.82V3.647c0-.337.18-.652.473-.819L5.019.231a.99.99 0 0 1 .946 0l4.509 2.596a.946.946 0 0 1 .473.818V8.83a.95.95 0 0 1-.473.82l-4.509 2.593a.95.95 0 0 1-.475.127" mask="url(#b)"/>
        </g>
        <path fill="#7B8590" fill-rule="nonzero" d="M26.07 26.903c-1.973 0-2.385-.902-2.385-1.66a.13.13 0 0 1 .13-.129h.583a.13.13 0 0 1 .13.11c.087.592.35.89 1.543.89.95 0 1.354-.214 1.354-.716 0-.29-.114-.504-1.59-.649-1.234-.12-1.998-.393-1.998-1.377 0-.905.767-1.446 2.053-1.446 1.445 0 2.16.5 2.25 1.57a.132.132 0 0 1-.13.143h-.586a.13.13 0 0 1-.126-.102c-.14-.622-.482-.821-1.408-.821-1.037 0-1.158.36-1.158.63 0 .326.142.422 1.543.606 1.386.183 2.044.441 2.044 1.411 0 .98-.82 1.54-2.248 1.54zm5.491-5.297h.264c.216 0 .256-.151.256-.238 0-.232-.16-.232-.248-.232h-.272v.47zm-.184-.626h.442c.15 0 .447 0 .447.257 0 .178-.15.215-.242.238.176.01.188.096.212.22.012.078.03.21.067.256h-.272c-.007-.046-.05-.293-.05-.307-.017-.055-.041-.082-.132-.082h-.224v.39h-.248v-.972zm-.402.484a.728.728 0 1 0 1.457 0 .724.724 0 0 0-.728-.72.724.724 0 0 0-.729.72zm1.597.002a.87.87 0 0 1-1.737 0 .87.87 0 0 1 1.737 0zM10.715 10.19a.574.574 0 0 0-.288-.5l-4.78-2.74a.565.565 0 0 0-.264-.076h-.05a.573.573 0 0 0-.263.076L.289 9.69a.577.577 0 0 0-.289.5l.01 7.382c0 .102.054.198.144.248.088.053.2.053.287 0l2.841-1.62a.58.58 0 0 0 .29-.5v-3.448c0-.206.109-.396.288-.498l1.21-.694a.577.577 0 0 1 .576 0l1.21.694c.179.102.288.292.288.498V15.7c0 .205.11.394.29.5l2.84 1.62a.287.287 0 1 0 .432-.248l.01-7.381zm22.558 3.844a.144.144 0 0 1-.072.125l-1.642.942a.145.145 0 0 1-.144 0l-1.642-.942a.144.144 0 0 1-.072-.125v-1.89c0-.05.027-.098.072-.124l1.642-.945a.145.145 0 0 1 .145 0l1.642.945a.146.146 0 0 1 .071.125v1.89zm.444-13.99a.287.287 0 0 0-.43.251v7.31a.202.202 0 0 1-.302.174l-1.197-.687a.58.58 0 0 0-.577 0l-4.783 2.75a.575.575 0 0 0-.289.498v5.502c0 .204.11.395.289.498l4.782 2.752c.179.102.399.102.578 0l4.783-2.752a.575.575 0 0 0 .288-.498V2.13c0-.21-.113-.401-.296-.503L33.718.045h-.001zm15.924 12.051a.574.574 0 0 0 .288-.497v-1.333a.574.574 0 0 0-.288-.497l-4.751-2.75a.579.579 0 0 0-.579 0l-4.78 2.75a.575.575 0 0 0-.289.498v5.5c0 .206.112.397.292.499l4.75 2.697c.176.1.39.1.567.003l2.873-1.59a.287.287 0 0 0 .004-.502l-4.811-2.751a.287.287 0 0 1-.145-.25V12.15c0-.103.055-.198.144-.25l1.498-.86a.29.29 0 0 1 .288 0l1.498.86c.09.052.145.147.145.25v1.356c0 .103.054.198.144.25.09.05.2.05.29-.001l2.862-1.659z"/>
        <path fill="#7B8590" fill-rule="nonzero" d="M44.53 11.838a.111.111 0 0 1 .111 0l.918.527a.11.11 0 0 1 .055.096v1.056a.11.11 0 0 1-.055.096l-.918.527a.11.11 0 0 1-.111 0l-.917-.527a.11.11 0 0 1-.055-.096V12.46c0-.04.02-.076.055-.096l.917-.527"/>
        <g transform="translate(13.093 6.886)">
            <mask id="d" fill="#fff">
                <use xlink:href="#c"/>
            </mask>
            <path fill="#89939D" fill-rule="nonzero" d="M5.082.08L.327 2.814a.571.571 0 0 0-.287.496v5.472c0 .205.11.393.287.495l4.755 2.737a.575.575 0 0 0 .575 0l4.754-2.737a.572.572 0 0 0 .287-.495V3.309a.572.572 0 0 0-.287-.495L5.657.08a.576.576 0 0 0-.575 0" mask="url(#d)"/>
        </g>
        <g transform="translate(13.205 6.886)">
            <mask id="f" fill="#fff">
                <use xlink:href="#e"/>
            </mask>
            <path fill="#636A73" fill-rule="nonzero" d="M.045 9.13a.57.57 0 0 0 .17.147l4.101 2.361.656.376a.58.58 0 0 0 .445.054l5.014-9.149a.573.573 0 0 0-.133-.105L7.184 1.023 5.539.08a.567.567 0 0 0-.15-.06L.046 9.13z" mask="url(#f)"/>
        </g>
        <g transform="translate(13.43 6.886)">
            <mask id="h" fill="#fff">
                <use xlink:href="#g"/>
            </mask>
            <path fill="#7B8590" fill-rule="nonzero" d="M4.971.006a.575.575 0 0 0-.227.074L.002 2.806l5.112 9.279a.573.573 0 0 0 .205-.071l4.754-2.737a.573.573 0 0 0 .277-.39L5.138.015a.598.598 0 0 0-.167-.009" mask="url(#h)"/>
        </g>
        <path d="M23.516 16.163l-4.76 2.736a.578.578 0 0 1-.21.072l.094.172 5.288-3.05v-.072l-.131-.222a.598.598 0 0 1-.281.364"/>
        <path d="M23.516 16.163l-4.76 2.736a.578.578 0 0 1-.21.072l.094.172 5.288-3.05v-.072l-.131-.222a.598.598 0 0 1-.281.364"/>
    </g>
</svg>
